<svg width="152" height="23" viewBox="0 0 152 23" fill="none" xmlns="http://www.w3.org/2000/svg">
<path d="M20.2266 6.80469C20.3379 6.65234 20.458 6.53809 20.5869 6.46191C20.7217 6.38574 20.8652 6.34766 21.0176 6.34766C21.2812 6.34766 21.4951 6.43848 21.6592 6.62012C21.8291 6.80176 21.9141 7.10938 21.9141 7.54297V9.07227C21.9141 9.50586 21.8291 9.81641 21.6592 10.0039C21.4951 10.1855 21.2812 10.2764 21.0176 10.2764C20.7773 10.2764 20.584 10.209 20.4375 10.0742C20.291 9.93945 20.1826 9.6875 20.1123 9.31836C20.0713 9.07227 19.9893 8.88184 19.8662 8.74707C19.626 8.4834 19.2891 8.27246 18.8555 8.11426C18.4277 7.95605 17.9971 7.87695 17.5635 7.87695C17.0244 7.87695 16.5293 7.99414 16.0781 8.22852C15.627 8.46289 15.2285 8.84375 14.8828 9.37109C14.5371 9.89844 14.3643 10.5254 14.3643 11.252V12.4209C14.3643 13.2881 14.6777 14.0117 15.3047 14.5918C15.9375 15.1719 16.8135 15.4619 17.9326 15.4619C18.6006 15.4619 19.166 15.3711 19.6289 15.1895C19.8984 15.084 20.1855 14.876 20.4902 14.5654C20.6777 14.3779 20.8242 14.2578 20.9297 14.2051C21.0352 14.1465 21.1553 14.1172 21.29 14.1172C21.5303 14.1172 21.7412 14.208 21.9229 14.3896C22.1045 14.5713 22.1953 14.7852 22.1953 15.0312C22.1953 15.2773 22.0723 15.541 21.8262 15.8223C21.4688 16.2324 21.0088 16.5547 20.4463 16.7891C19.6904 17.1055 18.8555 17.2637 17.9414 17.2637C16.875 17.2637 15.9141 17.0439 15.0586 16.6045C14.3672 16.2529 13.7783 15.6992 13.292 14.9434C12.8057 14.1816 12.5625 13.3525 12.5625 12.4561V11.2344C12.5625 10.2969 12.7793 9.42383 13.2129 8.61523C13.6523 7.80078 14.2588 7.17383 15.0322 6.73438C15.8057 6.29492 16.626 6.0752 17.4932 6.0752C18.0146 6.0752 18.501 6.13672 18.9521 6.25977C19.4092 6.37695 19.834 6.55859 20.2266 6.80469ZM26.3525 12.9307V15.1982H27.0029C27.4365 15.1982 27.7441 15.2832 27.9258 15.4531C28.1133 15.6172 28.207 15.834 28.207 16.1035C28.207 16.3672 28.1133 16.584 27.9258 16.7539C27.7441 16.918 27.4365 17 27.0029 17H24.2695C23.8359 17 23.5254 16.918 23.3379 16.7539C23.1562 16.584 23.0654 16.3643 23.0654 16.0947C23.0654 15.8311 23.1592 15.6172 23.3467 15.4531C23.5342 15.2832 23.8418 15.1982 24.2695 15.1982H24.5508V8.14941H24.2695C23.8359 8.14941 23.5254 8.06738 23.3379 7.90332C23.1562 7.7334 23.0654 7.51367 23.0654 7.24414C23.0654 6.97461 23.1562 6.75781 23.3379 6.59375C23.5254 6.42383 23.8359 6.33887 24.2695 6.33887L28.3477 6.34766C29.6191 6.34766 30.6035 6.66406 31.3008 7.29688C32.0039 7.92383 32.3555 8.68848 32.3555 9.59082C32.3555 10.1533 32.1914 10.666 31.8633 11.1289C31.5352 11.5859 31.04 11.9932 30.3779 12.3506C30.7588 12.6846 31.166 13.1123 31.5996 13.6338C31.8691 13.9678 32.2324 14.4893 32.6895 15.1982C33.1465 15.1982 33.4482 15.2451 33.5947 15.3389C33.8584 15.5205 33.9902 15.7754 33.9902 16.1035C33.9902 16.3672 33.8994 16.584 33.7178 16.7539C33.5361 16.918 33.2285 17 32.7949 17H31.7666C30.3076 14.7441 29.0977 13.3877 28.1367 12.9307H26.3525ZM26.3525 11.1289H27.7588C28.2803 11.1289 28.7461 11.0498 29.1562 10.8916C29.707 10.6807 30.0762 10.458 30.2637 10.2236C30.457 9.98926 30.5537 9.75781 30.5537 9.5293C30.5537 9.18945 30.3721 8.87598 30.0088 8.58887C29.6455 8.2959 29.1152 8.14941 28.418 8.14941H26.3525V11.1289ZM39.9316 12.5264V15.1982H41.1445C41.5781 15.1982 41.8857 15.2832 42.0674 15.4531C42.2549 15.6172 42.3486 15.834 42.3486 16.1035C42.3486 16.3672 42.2549 16.584 42.0674 16.7539C41.8857 16.918 41.5781 17 41.1445 17H36.917C36.4893 17 36.1816 16.918 35.9941 16.7539C35.8125 16.584 35.7217 16.3643 35.7217 16.0947C35.7217 15.8311 35.8125 15.6172 35.9941 15.4531C36.1816 15.2832 36.4893 15.1982 36.917 15.1982H38.1299V12.5264L35.1504 8.14941C34.752 8.14941 34.459 8.06445 34.2715 7.89453C34.0898 7.72461 33.999 7.50781 33.999 7.24414C33.999 6.97461 34.0898 6.75781 34.2715 6.59375C34.459 6.42383 34.7695 6.33887 35.2031 6.33887L36.8379 6.34766C37.2715 6.34766 37.5791 6.42969 37.7607 6.59375C37.9482 6.75781 38.042 6.97461 38.042 7.24414C38.042 7.64844 37.8047 7.9502 37.3301 8.14941L39.0352 10.6631L40.7051 8.14941C40.4414 8.0498 40.2539 7.92383 40.1426 7.77148C40.0312 7.61914 39.9756 7.44336 39.9756 7.24414C39.9756 6.97461 40.0664 6.75781 40.248 6.59375C40.4355 6.42969 40.7461 6.34473 41.1797 6.33887L42.876 6.34766C43.3096 6.34766 43.6172 6.42969 43.7988 6.59375C43.9863 6.75781 44.0801 6.97461 44.0801 7.24414C44.0801 7.51367 43.9863 7.7334 43.7988 7.90332C43.6113 8.06738 43.3066 8.14941 42.8848 8.14941L39.9316 12.5264ZM48.791 13.3438V15.1982H50.6104C51.0439 15.1982 51.3516 15.2832 51.5332 15.4531C51.7207 15.6172 51.8145 15.834 51.8145 16.1035C51.8145 16.3672 51.7207 16.584 51.5332 16.7539C51.3516 16.918 51.0439 17 50.6104 17H46.708C46.2744 17 45.9639 16.918 45.7764 16.7539C45.5947 16.584 45.5039 16.3643 45.5039 16.0947C45.5039 15.8311 45.5977 15.6172 45.7852 15.4531C45.9727 15.2832 46.2803 15.1982 46.708 15.1982H46.9893V8.14941H46.708C46.2744 8.14941 45.9639 8.06738 45.7764 7.90332C45.5947 7.7334 45.5039 7.51367 45.5039 7.24414C45.5039 6.97461 45.5947 6.75781 45.7764 6.59375C45.9639 6.42383 46.2744 6.33887 46.708 6.33887L50.8564 6.34766C52.0752 6.34766 53.0391 6.68164 53.748 7.34961C54.4629 8.01172 54.8203 8.82031 54.8203 9.77539C54.8203 10.3027 54.7002 10.8008 54.46 11.2695C54.2783 11.6211 53.9736 11.9697 53.5459 12.3154C53.124 12.6553 52.6904 12.9131 52.2451 13.0889C51.8057 13.2588 51.2227 13.3438 50.4961 13.3438H48.791ZM48.791 11.542H50.4609C51.2461 11.542 51.8672 11.3662 52.3242 11.0146C52.7871 10.6572 53.0186 10.2295 53.0186 9.73145C53.0186 9.30957 52.8311 8.94043 52.4561 8.62402C52.0869 8.30762 51.5566 8.14941 50.8652 8.14941H48.791V11.542ZM61.5176 8.14941V15.1982H62.7305C63.1641 15.1982 63.4717 15.2832 63.6533 15.4531C63.8408 15.6172 63.9346 15.834 63.9346 16.1035C63.9346 16.3672 63.8408 16.584 63.6533 16.7539C63.4717 16.918 63.1641 17 62.7305 17H58.5117C58.0781 17 57.7676 16.918 57.5801 16.7539C57.3984 16.584 57.3076 16.3643 57.3076 16.0947C57.3076 15.8311 57.3984 15.6172 57.5801 15.4531C57.7676 15.2832 58.0781 15.1982 58.5117 15.1982H59.7158V8.14941H57.7646V9.85449C57.7646 10.2881 57.6797 10.5986 57.5098 10.7861C57.3457 10.9678 57.1289 11.0586 56.8594 11.0586C56.5957 11.0586 56.3789 10.9678 56.209 10.7861C56.0449 10.5986 55.9629 10.2881 55.9629 9.85449V6.33887L65.2969 6.34766V9.85449C65.2969 10.2881 65.2119 10.5986 65.042 10.7861C64.8779 10.9678 64.6611 11.0586 64.3916 11.0586C64.1279 11.0586 63.9111 10.9678 63.7412 10.7861C63.5771 10.5986 63.4951 10.2881 63.4951 9.85449V8.14941H61.5176ZM76.5117 11.6738C76.5117 13.2734 76.002 14.6064 74.9824 15.6729C73.9688 16.7334 72.7939 17.2637 71.458 17.2637C70.2568 17.2637 69.1729 16.8213 68.2061 15.9365C67.0107 14.8408 66.4131 13.4199 66.4131 11.6738C66.4131 9.92773 67.0107 8.50391 68.2061 7.40234C69.1729 6.51758 70.2568 6.0752 71.458 6.0752C72.7939 6.0752 73.9688 6.6084 74.9824 7.6748C76.002 8.73535 76.5117 10.0684 76.5117 11.6738ZM74.71 11.6738C74.71 10.5781 74.3789 9.67285 73.7168 8.95801C73.0547 8.2373 72.3018 7.87695 71.458 7.87695C70.6201 7.87695 69.8701 8.2373 69.208 8.95801C68.5459 9.67871 68.2148 10.584 68.2148 11.6738C68.2148 12.7637 68.5459 13.6689 69.208 14.3896C69.8701 15.1045 70.6201 15.4619 71.458 15.4619C72.3018 15.4619 73.0547 15.1045 73.7168 14.3896C74.3789 13.6748 74.71 12.7695 74.71 11.6738Z" fill="white"/>
<rect x="0.5" y="0.5" width="88.1547" height="22" stroke="#00FF00"/>
<path d="M93.9484 5.96973V10.8652C94.839 9.70508 95.9142 9.125 97.174 9.125C98.2521 9.125 99.1749 9.51758 99.9425 10.3027C100.71 11.082 101.094 12.04 101.094 13.1768C101.094 14.3252 100.704 15.2979 99.9249 16.0947C99.1515 16.8916 98.2345 17.29 97.174 17.29C95.8849 17.29 94.8097 16.71 93.9484 15.5498V17H92.2169C92.0411 17 91.9152 16.9648 91.839 16.8945C91.7628 16.8242 91.7247 16.7363 91.7247 16.6309C91.7247 16.5195 91.7628 16.4316 91.839 16.3672C91.9152 16.2969 92.0411 16.2617 92.2169 16.2617H93.2101V6.7168H92.2169C92.0411 6.7168 91.9152 6.68164 91.839 6.61133C91.7628 6.54102 91.7247 6.4502 91.7247 6.33887C91.7247 6.2334 91.7628 6.14551 91.839 6.0752C91.9152 6.00488 92.0411 5.96973 92.2169 5.96973H93.9484ZM100.356 13.2119C100.356 12.2803 100.036 11.4922 99.3976 10.8477C98.7589 10.1973 98.0118 9.87207 97.1564 9.87207C96.3009 9.87207 95.5538 10.1973 94.9152 10.8477C94.2765 11.4922 93.9572 12.2803 93.9572 13.2119C93.9572 14.1436 94.2765 14.9346 94.9152 15.585C95.5538 16.2295 96.3009 16.5518 97.1564 16.5518C98.0118 16.5518 98.7589 16.2295 99.3976 15.585C100.036 14.9346 100.356 14.1436 100.356 13.2119ZM107.387 14.8818H107.703C108.031 14.8818 108.313 14.999 108.547 15.2334C108.781 15.4619 108.899 15.7402 108.899 16.0684C108.899 16.4082 108.778 16.6924 108.538 16.9209C108.304 17.1494 108.026 17.2637 107.703 17.2637H107.387C107.059 17.2637 106.777 17.1494 106.543 16.9209C106.309 16.6865 106.192 16.4053 106.192 16.0771C106.192 15.7373 106.309 15.4531 106.543 15.2246C106.783 14.9961 107.065 14.8818 107.387 14.8818ZM117.072 7.45508V16.2617H121.977V13.3262C121.977 13.1504 122.012 13.0244 122.082 12.9482C122.152 12.8721 122.243 12.834 122.355 12.834C122.46 12.834 122.548 12.8721 122.618 12.9482C122.689 13.0186 122.724 13.1445 122.724 13.3262V17H114.568C114.392 17 114.266 16.9648 114.19 16.8945C114.113 16.8242 114.075 16.7363 114.075 16.6309C114.075 16.5195 114.113 16.4316 114.19 16.3672C114.266 16.2969 114.392 16.2617 114.568 16.2617H116.325V7.45508H114.568C114.392 7.45508 114.266 7.42285 114.19 7.3584C114.113 7.28809 114.075 7.19727 114.075 7.08594C114.075 6.97461 114.113 6.88672 114.19 6.82227C114.266 6.75195 114.392 6.7168 114.568 6.7168H118.83C119.006 6.7168 119.132 6.75195 119.208 6.82227C119.284 6.88672 119.322 6.97461 119.322 7.08594C119.322 7.19727 119.284 7.28809 119.208 7.3584C119.132 7.42285 119.006 7.45508 118.83 7.45508H117.072ZM133.288 13.2119C133.288 14.3369 132.884 15.2979 132.075 16.0947C131.273 16.8916 130.303 17.29 129.166 17.29C128.018 17.29 127.042 16.8916 126.239 16.0947C125.437 15.292 125.035 14.3311 125.035 13.2119C125.035 12.0869 125.437 11.126 126.239 10.3291C127.042 9.52637 128.018 9.125 129.166 9.125C130.303 9.125 131.273 9.52344 132.075 10.3203C132.884 11.1172 133.288 12.0811 133.288 13.2119ZM132.541 13.2119C132.541 12.2861 132.21 11.498 131.548 10.8477C130.892 10.1973 130.095 9.87207 129.157 9.87207C128.22 9.87207 127.42 10.2002 126.758 10.8564C126.102 11.5068 125.774 12.292 125.774 13.2119C125.774 14.126 126.102 14.9111 126.758 15.5674C127.42 16.2236 128.22 16.5518 129.157 16.5518C130.095 16.5518 130.892 16.2266 131.548 15.5762C132.21 14.9199 132.541 14.1318 132.541 13.2119ZM142.455 10.7422V9.38867H144.187C144.362 9.38867 144.488 9.42383 144.565 9.49414C144.641 9.56445 144.679 9.65527 144.679 9.7666C144.679 9.87207 144.641 9.95996 144.565 10.0303C144.488 10.1006 144.362 10.1357 144.187 10.1357H143.193V17.5098C143.193 18.002 143.088 18.4414 142.877 18.8281C142.736 19.0859 142.502 19.3525 142.174 19.6279C141.846 19.9033 141.547 20.0996 141.277 20.2168C141.008 20.334 140.648 20.3926 140.196 20.3926H138.105C137.929 20.3926 137.803 20.3574 137.727 20.2871C137.651 20.2227 137.612 20.1348 137.612 20.0234C137.612 19.9121 137.651 19.8213 137.727 19.751C137.803 19.6807 137.929 19.6455 138.105 19.6455L140.223 19.6543C140.656 19.6543 141.046 19.543 141.392 19.3203C141.743 19.0977 142.033 18.7725 142.262 18.3447C142.391 18.0986 142.455 17.7852 142.455 17.4043V15.1895C141.664 16.2734 140.645 16.8154 139.397 16.8154C138.383 16.8154 137.507 16.4404 136.769 15.6904C136.036 14.9346 135.67 14.0264 135.67 12.9658C135.67 11.9053 136.036 11 136.769 10.25C137.507 9.5 138.383 9.125 139.397 9.125C140.645 9.125 141.664 9.66406 142.455 10.7422ZM142.455 12.9658C142.455 12.0986 142.156 11.3662 141.559 10.7686C140.967 10.1709 140.258 9.87207 139.432 9.87207C138.606 9.87207 137.897 10.1738 137.305 10.7773C136.713 11.375 136.417 12.1045 136.417 12.9658C136.417 13.833 136.713 14.5684 137.305 15.1719C137.897 15.7695 138.606 16.0684 139.432 16.0684C140.258 16.0684 140.967 15.7695 141.559 15.1719C142.156 14.5684 142.455 13.833 142.455 12.9658Z" fill="white"/>
</svg>
